<mxfile host="app.diagrams.net" modified="2024-06-29T07:50:56.196Z" agent="Mozilla/5.0 (X11; Linux x86_64) AppleWebKit/537.36 (KHTML, like Gecko) Chrome/123.0.0.0 Safari/537.36" etag="FvS1TRbJSWPynSdVE1Cv" version="24.6.4" type="google">
  <diagram name="Page-1" id="U2OxhLMum2XBd6-cDMG2">
    <mxGraphModel grid="1" page="1" gridSize="10" guides="1" tooltips="1" connect="1" arrows="1" fold="1" pageScale="1" pageWidth="850" pageHeight="1100" math="0" shadow="0">
      <root>
        <mxCell id="0" />
        <mxCell id="1" parent="0" />
        <mxCell id="7T3pxkfMvd1s2AbRAeXG-1" value="&lt;font style=&quot;font-size: 11px;&quot;&gt;G&lt;/font&gt;" style="shape=parallelogram;perimeter=parallelogramPerimeter;whiteSpace=wrap;html=1;fixedSize=1;" vertex="1" parent="1">
          <mxGeometry x="220" y="50" width="80" height="40" as="geometry" />
        </mxCell>
        <mxCell id="7T3pxkfMvd1s2AbRAeXG-3" value="&lt;font style=&quot;font-size: 11px;&quot;&gt;G1&lt;/font&gt;" style="shape=parallelogram;perimeter=parallelogramPerimeter;whiteSpace=wrap;html=1;fixedSize=1;" vertex="1" parent="1">
          <mxGeometry x="165" y="160" width="80" height="40" as="geometry" />
        </mxCell>
        <mxCell id="7T3pxkfMvd1s2AbRAeXG-4" value="&lt;font style=&quot;font-size: 11px;&quot;&gt;G2&lt;/font&gt;" style="shape=parallelogram;perimeter=parallelogramPerimeter;whiteSpace=wrap;html=1;fixedSize=1;" vertex="1" parent="1">
          <mxGeometry x="255" y="160" width="80" height="40" as="geometry" />
        </mxCell>
        <mxCell id="7T3pxkfMvd1s2AbRAeXG-10" style="edgeStyle=orthogonalEdgeStyle;rounded=0;orthogonalLoop=1;jettySize=auto;html=1;exitX=0;exitY=1;exitDx=0;exitDy=0;entryX=0.5;entryY=0;entryDx=0;entryDy=0;startArrow=none;startFill=0;endArrow=none;endFill=0;" edge="1" parent="1" source="7T3pxkfMvd1s2AbRAeXG-8" target="7T3pxkfMvd1s2AbRAeXG-3">
          <mxGeometry relative="1" as="geometry" />
        </mxCell>
        <mxCell id="7T3pxkfMvd1s2AbRAeXG-8" value="" style="ellipse;whiteSpace=wrap;html=1;aspect=fixed;" vertex="1" parent="1">
          <mxGeometry x="245" y="110" width="10" height="10" as="geometry" />
        </mxCell>
        <mxCell id="7T3pxkfMvd1s2AbRAeXG-9" style="edgeStyle=orthogonalEdgeStyle;rounded=0;orthogonalLoop=1;jettySize=auto;html=1;entryX=0.375;entryY=1;entryDx=0;entryDy=0;entryPerimeter=0;" edge="1" parent="1" source="7T3pxkfMvd1s2AbRAeXG-8" target="7T3pxkfMvd1s2AbRAeXG-1">
          <mxGeometry relative="1" as="geometry" />
        </mxCell>
        <mxCell id="7T3pxkfMvd1s2AbRAeXG-12" style="edgeStyle=orthogonalEdgeStyle;rounded=0;orthogonalLoop=1;jettySize=auto;html=1;exitX=1;exitY=1;exitDx=0;exitDy=0;entryX=0.616;entryY=-0.006;entryDx=0;entryDy=0;entryPerimeter=0;startArrow=none;startFill=0;endArrow=none;endFill=0;" edge="1" parent="1" source="7T3pxkfMvd1s2AbRAeXG-8" target="7T3pxkfMvd1s2AbRAeXG-4">
          <mxGeometry relative="1" as="geometry" />
        </mxCell>
        <mxCell id="7T3pxkfMvd1s2AbRAeXG-30" style="edgeStyle=orthogonalEdgeStyle;rounded=0;orthogonalLoop=1;jettySize=auto;html=1;exitX=0;exitY=0.5;exitDx=0;exitDy=0;dashed=1;" edge="1" parent="1" source="7T3pxkfMvd1s2AbRAeXG-13" target="7T3pxkfMvd1s2AbRAeXG-1">
          <mxGeometry relative="1" as="geometry" />
        </mxCell>
        <mxCell id="7T3pxkfMvd1s2AbRAeXG-13" value="&lt;font style=&quot;font-size: 11px;&quot;&gt;!G&lt;/font&gt;" style="shape=parallelogram;perimeter=parallelogramPerimeter;whiteSpace=wrap;html=1;fixedSize=1;" vertex="1" parent="1">
          <mxGeometry x="435" y="50" width="80" height="40" as="geometry" />
        </mxCell>
        <mxCell id="7T3pxkfMvd1s2AbRAeXG-20" style="edgeStyle=orthogonalEdgeStyle;rounded=0;orthogonalLoop=1;jettySize=auto;html=1;entryX=0.25;entryY=1;entryDx=0;entryDy=0;" edge="1" parent="1" source="7T3pxkfMvd1s2AbRAeXG-14" target="7T3pxkfMvd1s2AbRAeXG-13">
          <mxGeometry relative="1" as="geometry" />
        </mxCell>
        <mxCell id="7T3pxkfMvd1s2AbRAeXG-14" value="&lt;font style=&quot;font-size: 11px;&quot;&gt;!G1&lt;/font&gt;" style="shape=parallelogram;perimeter=parallelogramPerimeter;whiteSpace=wrap;html=1;fixedSize=1;" vertex="1" parent="1">
          <mxGeometry x="380" y="160" width="80" height="40" as="geometry" />
        </mxCell>
        <mxCell id="7T3pxkfMvd1s2AbRAeXG-21" style="edgeStyle=orthogonalEdgeStyle;rounded=0;orthogonalLoop=1;jettySize=auto;html=1;entryX=0.5;entryY=1;entryDx=0;entryDy=0;" edge="1" parent="1" source="7T3pxkfMvd1s2AbRAeXG-15" target="7T3pxkfMvd1s2AbRAeXG-13">
          <mxGeometry relative="1" as="geometry" />
        </mxCell>
        <mxCell id="7T3pxkfMvd1s2AbRAeXG-35" style="edgeStyle=orthogonalEdgeStyle;rounded=0;orthogonalLoop=1;jettySize=auto;html=1;entryX=0.5;entryY=1;entryDx=0;entryDy=0;dashed=1;" edge="1" parent="1" source="7T3pxkfMvd1s2AbRAeXG-15" target="7T3pxkfMvd1s2AbRAeXG-4">
          <mxGeometry relative="1" as="geometry">
            <Array as="points">
              <mxPoint x="510" y="280" />
              <mxPoint x="295" y="280" />
            </Array>
          </mxGeometry>
        </mxCell>
        <mxCell id="7T3pxkfMvd1s2AbRAeXG-15" value="&lt;font style=&quot;font-size: 11px;&quot;&gt;!G2&lt;/font&gt;" style="shape=parallelogram;perimeter=parallelogramPerimeter;whiteSpace=wrap;html=1;fixedSize=1;" vertex="1" parent="1">
          <mxGeometry x="470" y="160" width="80" height="40" as="geometry" />
        </mxCell>
        <mxCell id="7T3pxkfMvd1s2AbRAeXG-27" value="" style="ellipse;whiteSpace=wrap;html=1;aspect=fixed;" vertex="1" parent="1">
          <mxGeometry x="440" y="119" width="10" height="10" as="geometry" />
        </mxCell>
        <mxCell id="7T3pxkfMvd1s2AbRAeXG-29" value="" style="ellipse;whiteSpace=wrap;html=1;aspect=fixed;" vertex="1" parent="1">
          <mxGeometry x="487" y="119" width="10" height="10" as="geometry" />
        </mxCell>
        <mxCell id="7T3pxkfMvd1s2AbRAeXG-31" value="" style="endArrow=none;html=1;rounded=0;" edge="1" parent="1">
          <mxGeometry width="50" height="50" relative="1" as="geometry">
            <mxPoint x="320" y="77.5" as="sourcePoint" />
            <mxPoint x="320" y="62.5" as="targetPoint" />
          </mxGeometry>
        </mxCell>
        <mxCell id="7T3pxkfMvd1s2AbRAeXG-32" style="edgeStyle=orthogonalEdgeStyle;rounded=0;orthogonalLoop=1;jettySize=auto;html=1;entryX=0.317;entryY=1.025;entryDx=0;entryDy=0;entryPerimeter=0;dashed=1;" edge="1" parent="1" source="7T3pxkfMvd1s2AbRAeXG-14" target="7T3pxkfMvd1s2AbRAeXG-3">
          <mxGeometry relative="1" as="geometry">
            <Array as="points">
              <mxPoint x="420" y="270" />
              <mxPoint x="190" y="270" />
            </Array>
          </mxGeometry>
        </mxCell>
        <mxCell id="7T3pxkfMvd1s2AbRAeXG-34" value="" style="endArrow=none;html=1;rounded=0;" edge="1" parent="1">
          <mxGeometry width="50" height="50" relative="1" as="geometry">
            <mxPoint x="198.04" y="219" as="sourcePoint" />
            <mxPoint x="183.00422818791944" y="219" as="targetPoint" />
          </mxGeometry>
        </mxCell>
        <mxCell id="7T3pxkfMvd1s2AbRAeXG-36" value="" style="endArrow=none;html=1;rounded=0;" edge="1" parent="1">
          <mxGeometry width="50" height="50" relative="1" as="geometry">
            <mxPoint x="302.03999999999996" y="220" as="sourcePoint" />
            <mxPoint x="287.00422818791947" y="220" as="targetPoint" />
          </mxGeometry>
        </mxCell>
      </root>
    </mxGraphModel>
  </diagram>
</mxfile>
